/* XPM */
static char * cpu_40_xpm[] = {
"40 40 2 1",
" 	c None",
".	c #EFF0F1",
"                                        ",
"                                        ",
"                                        ",
"                                        ",
"                                        ",
"                                        ",
"           .  .  .  .  .  .             ",
"           .  .  .  .  .  .             ",
"           .  .  .  .  .  .             ",
"           .  .  .  .  .  .             ",
"           .  .  .  .  .  .             ",
"          ..................            ",
"     ......                ......       ",
"          .                .            ",
"     ......                ......       ",
"          .    ..    ..    .            ",
"     ......    ..    ..    ......       ",
"          .                .            ",
"     ......                ......       ",
"          .                .            ",
"     ......                ......       ",
"          .                .            ",
"     ......                ......       ",
"          .                .            ",                                
"     ......    ..    ..    ......       ",                               
"          .    ..    ..    .            ",  
"     ......                ......       ",
"          .                .            ",
"     ......                ......       ",
"          ..................            ",
"           .  .  .  .  .  .             ",
"           .  .  .  .  .  .             ",
"           .  .  .  .  .  .             ",
"           .  .  .  .  .  .             ",
"           .  .  .  .  .  .             ",
"                                        ",
"                                        ",
"                                        ",
"                                        ",
"                                        ",
}
