/* XPM */
static char * calendar_xpm[] = {
"40 40 2 1",
" 	c None",
".	c #EFF0F1",
"                                        ",
"                                        ",
"                                        ",
"              .          .              ",
"              .          .              ",
"          ....................          ",
"         .    .          .    .         ",
"         .    .          .    .         ",
"         .                    .         ",
"         .                    .         ",
"         .                    .         ",
"         .                    .         ",
"         .                    .         ",
"         ......................         ",
"         .                    .         ",
"         .                    .         ",
"         .                    .         ",
"         .     .. .. .. .. .. .         ",
"         .     .. .. .. .. .. .         ",
"         .     .. .. .. .. .. .         ",
"         .                    .         ",
"         .  .. .. .. .. .. .. .         ",
"         .  .. .. .. .. .. .. .         ",
"         .  .. .. .. .. .. .. .         ",
"         .                    .         ",
"         .  .. .. .. .. .. .. .         ",
"         .  .. .. .. .. .. .. .         ",
"         .  .. .. .. .. .. .. .         ",
"         .                    .         ",
"         .  .. .. ..          .         ",
"         .  .. .. ..          .         ",
"         .  .. .. ..          .         ",
"         .                    .         ",
"         .                    .         ",
"         .                    .         ",
"          ....................          ",
"                                        ",
"                                        ",
"                                        ",
"                                        ",
"                                        ",
}
